<svg xmlns="http://www.w3.org/2000/svg" viewBox="0 0 1200 675" role="img">
<title>Half-kneeling single-arm cable row</title>
<defs>
<marker id="arrow" viewBox="0 0 10 10" refX="8" refY="5" markerWidth="7" markerHeight="7" orient="auto-start-reverse"><path d="M0 0 L10 5 L0 10 z" fill="#3da99c"/></marker>
<filter id="shadow"><feDropShadow dx="0" dy="4" stdDeviation="5" flood-color="#000" flood-opacity=".28"/></filter>
</defs>
<rect width="1200" height="675" fill="#071827"/>
<g transform="translate(24,0)">
<rect x="0" y="28" width="558" height="596" rx="22" fill="#102536" stroke="#315064" stroke-width="2"/>
<text x="28" y="76" fill="#f5f1e8" font-family="system-ui,sans-serif" font-size="24" font-weight="750" letter-spacing="1">ARM LONG</text>
<line x1="45" y1="574" x2="515" y2="574" stroke="#315064" stroke-width="4"/><rect x="38" y="160" width="20" height="330" fill="#6f7e89"/><circle cx="55" cy="300" r="13" fill="#7c8d98"/><line x1="55" y1="300" x2="145" y2="300" stroke="#9aa9b2" stroke-width="6"/><circle cx="335" cy="170" r="30" fill="#e8aa7d" stroke="#754d3b" stroke-width="3"/><path d="M308 163 Q310 132 347 141 Q370 150 363 167" fill="#172635"/><path d="M363 166 l10 5 -10 5" fill="#e8aa7d" stroke="#754d3b" stroke-width="2"/><rect x="285.0" y="205" width="100" height="190" rx="34" fill="#287c74" stroke="#315064" stroke-width="3"/><path d="M301.0 233 Q335 217 369.0 233" fill="none" stroke="#3da99c" stroke-width="7" opacity=".65"/><rect x="279.0" y="375" width="112" height="72" rx="16" fill="#303946" stroke="#315064" stroke-width="3"/><line x1="310" y1="445" x2="250" y2="555" stroke="#754d3b" stroke-width="44" stroke-linecap="round" opacity="1"/><line x1="310" y1="445" x2="250" y2="555" stroke="#e8aa7d" stroke-width="39" stroke-linecap="round" opacity="1"/><line x1="360" y1="445" x2="435" y2="510" stroke="#754d3b" stroke-width="44" stroke-linecap="round" opacity="1"/><line x1="360" y1="445" x2="435" y2="510" stroke="#e8aa7d" stroke-width="39" stroke-linecap="round" opacity="1"/><line x1="435" y1="510" x2="495" y2="555" stroke="#754d3b" stroke-width="37" stroke-linecap="round" opacity="1"/><line x1="435" y1="510" x2="495" y2="555" stroke="#e8aa7d" stroke-width="32" stroke-linecap="round" opacity="1"/><line x1="285" y1="250" x2="205" y2="300" stroke="#754d3b" stroke-width="36" stroke-linecap="round" opacity="1"/><line x1="285" y1="250" x2="205" y2="300" stroke="#e8aa7d" stroke-width="31" stroke-linecap="round" opacity="1"/><line x1="205" y1="300" x2="145" y2="300" stroke="#754d3b" stroke-width="32" stroke-linecap="round" opacity="1"/><line x1="205" y1="300" x2="145" y2="300" stroke="#e8aa7d" stroke-width="27" stroke-linecap="round" opacity="1"/><circle cx="205" cy="300" r="17" fill="#e8aa7d" stroke="#754d3b" stroke-width="3" opacity="1"/><text x="300" y="605" text-anchor="middle" fill="#a8bdc9" font-family="system-ui,sans-serif" font-size="17" font-weight="650">TORSO STAYS TALL + STILL</text>
</g>
<g transform="translate(618,0)">
<rect x="0" y="28" width="558" height="596" rx="22" fill="#102536" stroke="#315064" stroke-width="2"/>
<text x="28" y="76" fill="#f5f1e8" font-family="system-ui,sans-serif" font-size="24" font-weight="750" letter-spacing="1">HANDLE TO HIP / RIBS</text>
<line x1="45" y1="574" x2="515" y2="574" stroke="#315064" stroke-width="4"/><rect x="38" y="160" width="20" height="330" fill="#6f7e89"/><circle cx="55" cy="300" r="13" fill="#7c8d98"/><line x1="55" y1="300" x2="320" y2="300" stroke="#9aa9b2" stroke-width="6"/><circle cx="335" cy="170" r="30" fill="#e8aa7d" stroke="#754d3b" stroke-width="3"/><path d="M308 163 Q310 132 347 141 Q370 150 363 167" fill="#172635"/><path d="M363 166 l10 5 -10 5" fill="#e8aa7d" stroke="#754d3b" stroke-width="2"/><rect x="285.0" y="205" width="100" height="190" rx="34" fill="#287c74" stroke="#315064" stroke-width="3"/><path d="M301.0 233 Q335 217 369.0 233" fill="none" stroke="#3da99c" stroke-width="7" opacity=".65"/><rect x="279.0" y="375" width="112" height="72" rx="16" fill="#303946" stroke="#315064" stroke-width="3"/><line x1="310" y1="445" x2="250" y2="555" stroke="#754d3b" stroke-width="44" stroke-linecap="round" opacity="1"/><line x1="310" y1="445" x2="250" y2="555" stroke="#e8aa7d" stroke-width="39" stroke-linecap="round" opacity="1"/><line x1="360" y1="445" x2="435" y2="510" stroke="#754d3b" stroke-width="44" stroke-linecap="round" opacity="1"/><line x1="360" y1="445" x2="435" y2="510" stroke="#e8aa7d" stroke-width="39" stroke-linecap="round" opacity="1"/><line x1="435" y1="510" x2="495" y2="555" stroke="#754d3b" stroke-width="37" stroke-linecap="round" opacity="1"/><line x1="435" y1="510" x2="495" y2="555" stroke="#e8aa7d" stroke-width="32" stroke-linecap="round" opacity="1"/><line x1="285" y1="250" x2="235" y2="300" stroke="#754d3b" stroke-width="36" stroke-linecap="round" opacity="1"/><line x1="285" y1="250" x2="235" y2="300" stroke="#e8aa7d" stroke-width="31" stroke-linecap="round" opacity="1"/><line x1="235" y1="300" x2="320" y2="300" stroke="#754d3b" stroke-width="32" stroke-linecap="round" opacity="1"/><line x1="235" y1="300" x2="320" y2="300" stroke="#e8aa7d" stroke-width="27" stroke-linecap="round" opacity="1"/><circle cx="235" cy="300" r="17" fill="#e8aa7d" stroke="#754d3b" stroke-width="3" opacity="1"/><path d="M165 350 L300 350" fill="none" stroke="#3da99c" stroke-width="8" stroke-linecap="round" marker-end="url(#arrow)"/><text x="300" y="605" text-anchor="middle" fill="#a8bdc9" font-family="system-ui,sans-serif" font-size="17" font-weight="650">TORSO STAYS TALL + STILL</text>
</g>
<text x="600" y="657" text-anchor="middle" fill="#a8bdc9" font-family="system-ui,sans-serif" font-size="18">Pull the elbow close to the side; do not twist or shrug.</text>
</svg>