<svg xmlns="http://www.w3.org/2000/svg" viewBox="0 0 1200 675" role="img">
<title>Thoracic extension over towel</title>
<defs>
<marker id="arrow" viewBox="0 0 10 10" refX="8" refY="5" markerWidth="7" markerHeight="7" orient="auto-start-reverse"><path d="M0 0 L10 5 L0 10 z" fill="#3da99c"/></marker>
<filter id="shadow"><feDropShadow dx="0" dy="4" stdDeviation="5" flood-color="#000" flood-opacity=".28"/></filter>
</defs>
<rect width="1200" height="675" fill="#071827"/>
<g transform="translate(24,0)">
<rect x="0" y="28" width="558" height="596" rx="22" fill="#102536" stroke="#315064" stroke-width="2"/>
<text x="28" y="76" fill="#f5f1e8" font-family="system-ui,sans-serif" font-size="24" font-weight="750" letter-spacing="1">SET UP</text>
<line x1="45" y1="520" x2="515" y2="520" stroke="#315064" stroke-width="4"/><rect x="260" y="468" width="82" height="34" rx="16" fill="#c7b69c" stroke="#776b5b" stroke-width="4"/><path d="M170 405 Q260 402 350 425 Q375 442 405 448" fill="none" stroke="#287c74" stroke-width="92" stroke-linecap="round"/><circle cx="137" cy="392" r="30" fill="#e8aa7d" stroke="#754d3b" stroke-width="3"/><path d="M110 385 Q112 354 149 363 Q172 372 165 389" fill="#172635"/><path d="M165 388 l10 5 -10 5" fill="#e8aa7d" stroke="#754d3b" stroke-width="2"/><rect x="342.5" y="397" width="95" height="64" rx="16" fill="#303946" stroke="#315064" stroke-width="3"/><line x1="420" y1="452" x2="465" y2="340" stroke="#754d3b" stroke-width="43" stroke-linecap="round" opacity="1"/><line x1="420" y1="452" x2="465" y2="340" stroke="#e8aa7d" stroke-width="38" stroke-linecap="round" opacity="1"/><line x1="465" y1="340" x2="500" y2="515" stroke="#754d3b" stroke-width="39" stroke-linecap="round" opacity="1"/><line x1="465" y1="340" x2="500" y2="515" stroke="#e8aa7d" stroke-width="34" stroke-linecap="round" opacity="1"/><line x1="178" y1="380" x2="112" y2="355" stroke="#754d3b" stroke-width="31" stroke-linecap="round" opacity="1"/><line x1="178" y1="380" x2="112" y2="355" stroke="#e8aa7d" stroke-width="26" stroke-linecap="round" opacity="1"/><line x1="112" y1="355" x2="95" y2="412" stroke="#754d3b" stroke-width="29" stroke-linecap="round" opacity="1"/><line x1="112" y1="355" x2="95" y2="412" stroke="#e8aa7d" stroke-width="24" stroke-linecap="round" opacity="1"/><text x="300" y="552" text-anchor="middle" fill="#a8bdc9" font-family="system-ui,sans-serif" font-size="17" font-weight="650">TOWEL UNDER MID-BACK</text>
</g>
<g transform="translate(618,0)">
<rect x="0" y="28" width="558" height="596" rx="22" fill="#102536" stroke="#315064" stroke-width="2"/>
<text x="28" y="76" fill="#f5f1e8" font-family="system-ui,sans-serif" font-size="24" font-weight="750" letter-spacing="1">GENTLE DRAPE</text>
<line x1="45" y1="520" x2="515" y2="520" stroke="#315064" stroke-width="4"/><rect x="260" y="468" width="82" height="34" rx="16" fill="#c7b69c" stroke="#776b5b" stroke-width="4"/><path d="M170 400 Q255 332 350 420 Q375 444 405 448" fill="none" stroke="#287c74" stroke-width="92" stroke-linecap="round" stroke-linejoin="round"/><circle cx="137" cy="410" r="30" fill="#e8aa7d" stroke="#754d3b" stroke-width="3"/><path d="M110 403 Q112 372 149 381 Q172 390 165 407" fill="#172635"/><path d="M165 406 l10 5 -10 5" fill="#e8aa7d" stroke="#754d3b" stroke-width="2"/><rect x="342.5" y="397" width="95" height="64" rx="16" fill="#303946" stroke="#315064" stroke-width="3"/><line x1="420" y1="452" x2="465" y2="340" stroke="#754d3b" stroke-width="43" stroke-linecap="round" opacity="1"/><line x1="420" y1="452" x2="465" y2="340" stroke="#e8aa7d" stroke-width="38" stroke-linecap="round" opacity="1"/><line x1="465" y1="340" x2="500" y2="515" stroke="#754d3b" stroke-width="39" stroke-linecap="round" opacity="1"/><line x1="465" y1="340" x2="500" y2="515" stroke="#e8aa7d" stroke-width="34" stroke-linecap="round" opacity="1"/><line x1="178" y1="380" x2="112" y2="355" stroke="#754d3b" stroke-width="31" stroke-linecap="round" opacity="1"/><line x1="178" y1="380" x2="112" y2="355" stroke="#e8aa7d" stroke-width="26" stroke-linecap="round" opacity="1"/><line x1="112" y1="355" x2="95" y2="412" stroke="#754d3b" stroke-width="29" stroke-linecap="round" opacity="1"/><line x1="112" y1="355" x2="95" y2="412" stroke="#e8aa7d" stroke-width="24" stroke-linecap="round" opacity="1"/><text x="300" y="552" text-anchor="middle" fill="#a8bdc9" font-family="system-ui,sans-serif" font-size="17" font-weight="650">TOWEL UNDER MID-BACK</text><path d="M205 345 Q270 292 332 347" fill="none" stroke="#3da99c" stroke-width="8" stroke-linecap="round" marker-end="url(#arrow)"/>
</g>
<text x="600" y="657" text-anchor="middle" fill="#a8bdc9" font-family="system-ui,sans-serif" font-size="18">Head supported; movement comes from the mid-back, not the low back.</text>
</svg>